<?xml version="1.0" encoding="UTF-8"?>
<svg version="1.1" xmlns="http://www.w3.org/2000/svg" width="346" height="295">
<path d="M0 0 C10.82820551 8.95928036 18.78165243 21.16731763 25.6953125 33.25390625 C26.10394531 33.93453125 26.51257813 34.61515625 26.93359375 35.31640625 C30.98420484 42.57309948 32.63709421 51.31965586 34.3671875 59.38671875 C36.30864099 67.88649684 40.43863603 72.67430072 47.1328125 78.06640625 C51.93479673 82.02858158 55.19959693 87.15748314 58.6953125 92.25390625 C59.46681641 93.31738281 59.46681641 93.31738281 60.25390625 94.40234375 C71.72064953 110.62359033 79.8057776 130.84547351 79.9453125 150.81640625 C79.97625 151.92918945 79.97625 151.92918945 80.0078125 153.06445312 C80.04038017 157.63613941 79.65383515 160.55072144 76.6953125 164.25390625 C57.79007041 181.23941073 29.73929575 180.36631082 6.11816406 179.11767578 C-1.39508091 178.52804139 -7.86151186 176.80188366 -14.8515625 174.09375 C-22.61526203 171.43579554 -29.58659711 173.9818335 -37.10205078 176.38647461 C-54.27923005 181.87247339 -77.07679914 181.60743231 -94.3046875 176.25390625 C-94.96210937 176.04991211 -95.61953125 175.84591797 -96.296875 175.63574219 C-116.82828483 169.08133766 -116.82828483 169.08133766 -121.5234375 161.2109375 C-127.66382935 145.82925591 -120.10104624 125.82129465 -114.3046875 111.25390625 C-108.38520116 98.00958789 -99.13447023 87.95885766 -89.26538086 77.55517578 C-88.12764243 76.35516826 -86.9970556 75.14833352 -85.87426758 73.93432617 C-84.46575499 72.42634793 -83.01090966 70.96196356 -81.55078125 69.50390625 C-78.40769164 64.95599224 -77.69909864 60.42559127 -76.6171875 55.06640625 C-70.61610188 28.6258801 -54.97758357 8.95127526 -33.3046875 -6.74609375 C-32.62921875 -7.30683594 -31.95375 -7.86757813 -31.2578125 -8.4453125 C-20.79913832 -15.4107895 -8.24248859 -6.24473288 0 0 Z M-26.54296875 22.71484375 C-36.04643993 31.01721104 -44.50265162 41.63965508 -46.3046875 54.25390625 C-29.8046875 54.25390625 -13.3046875 54.25390625 3.6953125 54.25390625 C1.98148877 42.25714016 -4.87737596 31.26380543 -14.4921875 23.75390625 C-18.91151374 20.51366705 -21.83523246 19.22851007 -26.54296875 22.71484375 Z M-52.3046875 87.25390625 C-52.0284883 103.82585855 -42.52366493 120.33741489 -31.48046875 132.16796875 C-27.17308605 136.63889267 -27.17308605 136.63889267 -21.5546875 138.44140625 C-10.4268323 134.37545916 -5.57618723 125.14918807 -0.3046875 115.25390625 C0.03900879 114.61340332 0.38270508 113.97290039 0.73681641 113.31298828 C7.44734548 100.97696454 7.44734548 100.97696454 8.6953125 87.25390625 C0.8339365 79.94324757 -11.00194325 79.56793118 -21.1171875 79.69140625 C-22.34099121 79.6980127 -23.56479492 79.70461914 -24.82568359 79.71142578 C-33.94237075 79.90385287 -45.43154853 80.38076728 -52.3046875 87.25390625 Z M-82.3046875 109.25390625 C-89.31312826 118.84596713 -96.1141313 133.1297678 -96.3046875 145.25390625 C-93.92352882 149.29152314 -89.69473121 150.96494696 -85.3046875 152.25390625 C-73.3560642 155.09483766 -61.44176892 154.08810391 -49.3046875 153.25390625 C-49.79894895 148.79770779 -51.23464393 146.89182297 -54.3671875 143.75390625 C-62.40520283 135.12898822 -67.59959717 125.27824136 -71.98046875 114.4453125 C-73.28588983 111.29920918 -74.74726948 108.28196532 -76.3046875 105.25390625 C-78.62373879 105.25390625 -80.70551708 107.84757697 -82.3046875 109.25390625 Z M32.6953125 107.25390625 C32.41445801 107.8773291 32.13360352 108.50075195 31.84423828 109.14306641 C25.85770874 122.32314584 19.92183087 134.88784574 10.29589844 145.84716797 C7.32716849 149.05378433 7.32716849 149.05378433 6.6953125 153.25390625 C21.01496866 154.8378443 37.72100591 155.49319326 50.6953125 148.25390625 C51.91244383 147.2699937 51.91244383 147.2699937 51.71484375 145.390625 C50.558893 131.71550953 45.17507894 116.5067732 34.6953125 107.25390625 C34.0353125 107.25390625 33.3753125 107.25390625 32.6953125 107.25390625 Z " fill="#414546" transform="translate(191.3046875,39.74609375)"/>
<path d="M0 0 C5.69097752 3.49219075 9.90017651 9.70052954 12 16 C12.9391635 31.3878327 12.9391635 31.3878327 9 38 C8.443125 38.99 7.88625 39.98 7.3125 41 C3.23908775 46.2844267 -1.4853502 51.05768644 -8 53 C-10.67295006 53.21484045 -13.20613398 53.32497134 -15.875 53.3125 C-16.55691406 53.32861328 -17.23882812 53.34472656 -17.94140625 53.36132812 C-25.26058995 53.36829878 -30.92942856 50.77597128 -36.36328125 45.8671875 C-41.71223948 39.76503467 -45.40611193 30.81010685 -44.9375 22.6875 C-43.39087815 12.35325403 -37.32276402 4.76225205 -29.1640625 -1.3828125 C-20.13292982 -6.83197694 -8.83953056 -4.76869412 0 0 Z " fill="#FAC24B" transform="translate(277,67)"/>
<path d="M0 0 C1.11955078 0.62068359 1.11955078 0.62068359 2.26171875 1.25390625 C9.91291595 5.895211 13.56300387 11.44413914 16 20 C17.21549519 29.75902387 15.94441782 37.09168362 10 45 C4.8013999 51.17254708 -1.65588864 53.32679157 -9.51171875 54.31640625 C-16.94091487 54.67795269 -23.48823216 52.85591986 -29.30078125 48.12890625 C-36.53196148 41.13568076 -38.96561802 35.66515952 -39.1875 25.625 C-39.00618487 16.02824913 -37.23339231 11.3115971 -30.4453125 4.20703125 C-21.95407782 -3.4567828 -10.18664489 -5.68307557 0 0 Z " fill="#46A6AD" transform="translate(90,65)"/>
<path d="M0 0 C5.34064905 4.20809896 8.80259629 10.09528887 10.9375 16.5 C11.95125357 26.82580418 10.46733701 33.96257567 3.8828125 42.01171875 C-2.75591323 49.14432892 -7.83815455 51.55596371 -17.5 51.9375 C-25.43212231 51.71741799 -31.00129287 49.65223375 -36.875 44.3125 C-43.61004521 36.85696158 -44.97134895 29.15858494 -44.5 19.3125 C-43.51520354 10.73070225 -38.9577171 5.56450245 -32.44921875 0.1640625 C-22.8045535 -6.56036859 -9.73533033 -6.51475792 0 0 Z " fill="#DF4A5E" transform="translate(186.0625,225.5)"/>
<path d="M0 0 C5.69097752 3.49219075 9.90017651 9.70052954 12 16 C12.9391635 31.3878327 12.9391635 31.3878327 9 38 C8.443125 38.99 7.88625 39.98 7.3125 41 C3.23908775 46.2844267 -1.4853502 51.05768644 -8 53 C-10.67295006 53.21484045 -13.20613398 53.32497134 -15.875 53.3125 C-16.55691406 53.32861328 -17.23882812 53.34472656 -17.94140625 53.36132812 C-25.26058995 53.36829878 -30.92942856 50.77597128 -36.36328125 45.8671875 C-41.71223948 39.76503467 -45.40611193 30.81010685 -44.9375 22.6875 C-43.39087815 12.35325403 -37.32276402 4.76225205 -29.1640625 -1.3828125 C-20.13292982 -6.83197694 -8.83953056 -4.76869412 0 0 Z M-28 3 C-28 3.99 -28 4.98 -28 6 C-28.74765625 6.07605469 -29.4953125 6.15210937 -30.265625 6.23046875 C-33.70116206 7.19732704 -34.6493532 8.47290886 -36.75 11.3125 C-37.34296875 12.09238281 -37.9359375 12.87226562 -38.546875 13.67578125 C-41.85775667 18.97141188 -41.80681395 25.39306706 -40.46875 31.375 C-38.1133332 38.95329754 -34.89663697 44.03998027 -27.9375 48.03125 C-23.08230101 50.45884949 -17.34947323 50.59104667 -12 50 C-11.01 49.34 -10.02 48.68 -9 48 C-7.80375 47.690625 -6.6075 47.38125 -5.375 47.0625 C-4.26125 46.711875 -3.1475 46.36125 -2 46 C-1.67 45.01 -1.34 44.02 -1 43 C1.0625 42.3125 1.0625 42.3125 3 42 C3 41.34 3 40.68 3 40 C3.66 40 4.32 40 5 40 C5.28875 38.9275 5.5775 37.855 5.875 36.75 C7 33 7 33 8.0625 31.0625 C9.16990814 28.6262021 9.20326082 26.91086779 9.125 24.25 C9.10695313 23.45078125 9.08890625 22.6515625 9.0703125 21.828125 C9.04710937 21.22484375 9.02390625 20.6215625 9 20 C8.34 20 7.68 20 7 20 C6.8453125 18.948125 6.8453125 18.948125 6.6875 17.875 C5.22152711 11.74456791 2.93416258 8.50403796 -2.28125 5.17578125 C-4 4 -4 4 -5.2265625 2.375 C-8.11342117 0.13673072 -11.37968142 0.60877661 -14.875 0.6875 C-15.58269531 0.68427734 -16.29039062 0.68105469 -17.01953125 0.67773438 C-21.10895622 0.71961862 -24.32265171 1.1901678 -28 3 Z " fill="#A88E53" transform="translate(277,67)"/>
<path d="M0 0 C2 7.89915966 2 7.89915966 2 11 C2.66 11 3.32 11 4 11 C4.25523437 11.87011719 4.25523437 11.87011719 4.515625 12.7578125 C6.49820381 19.14846549 8.47357686 24.69016056 14.4375 28.3125 C20.12101754 31.00469252 25.73810107 31.69185775 32 31 C32.99 30.34 33.98 29.68 35 29 C36.19625 28.67 37.3925 28.34 38.625 28 C39.73875 27.67 40.8525 27.34 42 27 C42.33 26.34 42.66 25.68 43 25 C43.99 24.67 44.98 24.34 46 24 C46.33 23.34 46.66 22.68 47 22 C47.66 22 48.32 22 49 22 C49.103125 20.9275 49.20625 19.855 49.3125 18.75 C49.97400493 15.14179128 50.57483421 13.63604977 53 11 C55 13 55 13 55 15.625 C52.85818552 22.85362386 47.18077749 28.80828481 41 33 C36.77970125 35.17319426 32.78337635 35.33426811 28.125 35.3125 C27.44308594 35.32861328 26.76117188 35.34472656 26.05859375 35.36132812 C18.73941005 35.36829878 13.07057144 32.77597128 7.63671875 27.8671875 C2.88110963 22.44193413 -1.21776099 13.83740484 -0.890625 6.5703125 C-0.65699653 4.36458487 -0.36699659 2.1871013 0 0 Z " fill="#B19C66" transform="translate(233,85)"/>
<path d="M0 0 C0.875 2.25 0.875 2.25 1 4 C-1.475 3.505 -1.475 3.505 -4 3 C-4.495 1.515 -4.495 1.515 -5 0 C-5.78375 -0.12375 -6.5675 -0.2475 -7.375 -0.375 C-11.9353326 -1.16126424 -16.46567093 -2.07700416 -21 -3 C-21 -2.34 -21 -1.68 -21 -1 C-21.92232422 -0.83564453 -21.92232422 -0.83564453 -22.86328125 -0.66796875 C-24.07564453 -0.43013672 -24.07564453 -0.43013672 -25.3125 -0.1875 C-26.11300781 -0.03667969 -26.91351563 0.11414063 -27.73828125 0.26953125 C-30.25430815 1.08213407 -31.22594766 2.10108767 -33 4 C-33.66 4 -34.32 4 -35 4 C-35.33 4.99 -35.66 5.98 -36 7 C-36.66 7 -37.32 7 -38 7 C-38 9.31 -38 11.62 -38 14 C-39.98 14.99 -39.98 14.99 -42 16 C-42 21.28 -42 26.56 -42 32 C-42.33 32 -42.66 32 -43 32 C-45.85994484 14.12534477 -45.85994484 14.12534477 -42.87109375 7.49609375 C-41.38080729 5.44549071 -39.84496044 3.73544224 -38 2 C-37.49726562 1.51015625 -36.99453125 1.0203125 -36.4765625 0.515625 C-25.15277293 -9.66979419 -11.69797031 -9.19126239 0 0 Z " fill="#3F7073" transform="translate(96,69)"/>
<path d="M0 0 C2.46331458 0.97290576 3.77482216 1.66362323 5.265625 3.890625 C8.6707207 12.05204485 9.89541772 20.63523112 6.89453125 29.12890625 C4.09796108 34.639574 0.61065797 40.06165973 -5 43 C-8.9375 43.375 -8.9375 43.375 -12 43 C-12 42.34 -12 41.68 -12 41 C-11.4225 40.773125 -10.845 40.54625 -10.25 40.3125 C-7.43572387 38.67083893 -5.97262267 36.56440947 -4 34 C-3.01 33.505 -3.01 33.505 -2 33 C-1.67 32.01 -1.34 31.02 -1 30 C-0.34 30 0.32 30 1 30 C1.144375 29.360625 1.28875 28.72125 1.4375 28.0625 C2 26 2 26 3 25 C3.09983684 23.08548183 3.12967589 21.16711381 3.125 19.25 C3.12757812 18.20328125 3.13015625 17.1565625 3.1328125 16.078125 C3.01155348 13.26776878 2.63784091 10.73360391 2 8 C1.34 8 0.68 8 0 8 C0 5.36 0 2.72 0 0 Z " fill="#5A8A8F" transform="translate(98,73)"/>
<path d="M0 0 C-0.99 0 -1.98 0 -3 0 C-3.268125 0.639375 -3.53625 1.27875 -3.8125 1.9375 C-5 4 -5 4 -8 5 C-8 5.66 -8 6.32 -8 7 C-9.97321053 8.3726682 -11.97543152 9.70427617 -14 11 C-16.1385485 13.1385485 -16.42655063 14.13275314 -17 17 C-17.66 17 -18.32 17 -19 17 C-19 22.61 -19 28.22 -19 34 C-18.01 34.33 -17.02 34.66 -16 35 C-16 37.31 -16 39.62 -16 42 C-15.34 42 -14.68 42 -14 42 C-12.66666667 43.33333333 -11.33333333 44.66666667 -10 46 C-9.01 46.33 -8.02 46.66 -7 47 C-7 47.99 -7 48.98 -7 50 C-6.38125 50.144375 -5.7625 50.28875 -5.125 50.4375 C-3 51 -3 51 -1 52 C1.0374763 52.22858114 3.08040303 52.41024278 5.125 52.5625 C6.22070312 52.64628906 7.31640625 52.73007812 8.4453125 52.81640625 C9.70988281 52.90728516 9.70988281 52.90728516 11 53 C11 53.33 11 53.66 11 54 C1.69086148 54.5179737 -5.41146206 54.28861957 -12.96484375 48.4921875 C-19.3244447 42.71073209 -22.07371749 36.70789985 -22.52197266 28.11499023 C-22.66337611 20.73560383 -21.95696131 14.74504963 -17 9 C-6.08084715 -2.17173112 -6.08084715 -2.17173112 0 0 Z " fill="#A56A73" transform="translate(164,223)"/>
<path d="M0 0 C0 0.33 0 0.66 0 1 C-3.63 1 -7.26 1 -11 1 C-11.33 2.65 -11.66 4.3 -12 6 C-13.9609375 7.6953125 -13.9609375 7.6953125 -16.375 9.125 C-19.72654428 11.13614535 -19.72654428 11.13614535 -22.6640625 13.6796875 C-24 15 -24 15 -26 15 C-26.33 15.66 -26.66 16.32 -27 17 C-28.07669899 17.98909356 -29.18557389 18.94353645 -30.3125 19.875 C-33.0084099 22.138233 -35.55759705 24.45990093 -38 27 C-38.76171875 24.796875 -38.76171875 24.796875 -39 22 C-33.51610876 14.24292667 -24.6218736 8.46495042 -17 3 C-16.27039063 2.43667969 -15.54078125 1.87335937 -14.7890625 1.29296875 C-10.20255816 -2.02173198 -5.24457736 -0.80002028 0 0 Z " fill="#2F3233" transform="translate(175,30)"/>
<path d="M0 0 C9.04684765 -0.32765243 15.84990614 0.45016938 23.12890625 6.2109375 C26.06376606 9.01712913 28.44656479 12.23100966 30 16 C29.67 16.66 29.34 17.32 29 18 C26.6875 17.8125 26.6875 17.8125 24 17 C22.98133771 15.34467377 21.98189187 13.67739862 21 12 C18.42900598 10.65310085 18.42900598 10.65310085 16 10 C16.33 8.68 16.66 7.36 17 6 C14.36 6 11.72 6 9 6 C8.67 5.01 8.34 4.02 8 3 C8.33 2.67 8.66 2.34 9 2 C6.03 1.67 3.06 1.34 0 1 C0 0.67 0 0.34 0 0 Z " fill="#A84352" transform="translate(165,221)"/>
<path d="M0 0 C0.99 0.33 1.98 0.66 3 1 C1.6875 3.5 1.6875 3.5 0 6 C-0.99 6 -1.98 6 -3 6 C-3.33 6.99 -3.66 7.98 -4 9 C-4.66 9 -5.32 9 -6 9 C-6 9.66 -6 10.32 -6 11 C-6.66 11 -7.32 11 -8 11 C-8 11.99 -8 12.98 -8 14 C-8.66 14 -9.32 14 -10 14 C-10 15.65 -10 17.3 -10 19 C-10.66 19 -11.32 19 -12 19 C-12.04125 19.598125 -12.0825 20.19625 -12.125 20.8125 C-13 23 -13 23 -16.0625 24.75 C-17.031875 25.1625 -18.00125 25.575 -19 26 C-18.51741821 16.83094604 -11.47037569 8.94466134 -6 2 C-5.01 2.66 -4.02 3.32 -3 4 C-2.01 2.68 -1.02 1.36 0 0 Z " fill="#343738" transform="translate(141,52)"/>
<path d="M0 0 C10.30097431 4.86242859 17.01958052 13.32340382 24 22 C23.67 22.66 23.34 23.32 23 24 C22.01 23.67 21.02 23.34 20 23 C19.67 23.66 19.34 24.32 19 25 C18.731875 24.030625 18.46375 23.06125 18.1875 22.0625 C17.795625 21.051875 17.40375 20.04125 17 19 C16.01 18.67 15.02 18.34 14 18 C13.4225 17.071875 12.845 16.14375 12.25 15.1875 C9.85703032 11.79745962 8.23159617 10.83315319 4.6875 9 C2.08239934 7.45623665 0.57050228 5.55206621 -1 3 C-0.67 2.01 -0.34 1.02 0 0 Z " fill="#535454" transform="translate(183,35)"/>
<path d="M0 0 C3.74616718 0.2613605 5.63643735 0.69850902 8.5625 3.125 C14.40522294 10.0164168 17.1748387 14.43251917 17.0625 23.6875 C17.05798828 24.38939453 17.05347656 25.09128906 17.04882812 25.81445312 C17.03706927 27.54300538 17.01913454 29.27151365 17 31 C16.34 31 15.68 31 15 31 C14.505 32.485 14.505 32.485 14 34 C13.98582031 32.87722656 13.97164063 31.75445312 13.95703125 30.59765625 C13.72595518 18.45038065 13.72595518 18.45038065 8 8 C6.07905446 6.18276748 4.10236061 4.61343954 2 3 C2 2.34 2 1.68 2 1 C1.34 0.67 0.68 0.34 0 0 Z " fill="#988350" transform="translate(272,67)"/>
<path d="M0 0 C0.33 0 0.66 0 1 0 C0.87186721 6.15037397 -1.21411973 8.99131753 -5.30859375 13.49609375 C-7 15 -7 15 -9 15 C-9.061875 15.556875 -9.12375 16.11375 -9.1875 16.6875 C-10.3608937 20.027159 -12.34446814 21.71500747 -15 24 C-17.3125 24.8125 -17.3125 24.8125 -19 25 C-17.59769182 20.89640343 -15.65504926 18.06281131 -12.875 14.75 C-12.07835938 13.79996094 -11.28171875 12.84992188 -10.4609375 11.87109375 C-2.49681529 2.57961783 -2.49681529 2.57961783 0 0 Z " fill="#404344" transform="translate(101,118)"/>
<path d="M0 0 C0.33 0.66 0.66 1.32 1 2 C-3.46066981 9.73970524 -7.28344652 13.64986284 -16 16 C-16.33 15.34 -16.66 14.68 -17 14 C-17.99 14.33 -18.98 14.66 -20 15 C-20.99 14.34 -21.98 13.68 -23 13 C-23.1875 10.0625 -23.1875 10.0625 -23 7 C-23 6.01 -23 5.02 -23 4 C-22.56429687 4.44472656 -22.12859375 4.88945312 -21.6796875 5.34765625 C-17.94934229 8.98463321 -17.94934229 8.98463321 -13.0625 10.25 C-7.67218844 8.04987283 -3.23727883 4.85591825 0 0 Z " fill="#363837" transform="translate(183,167)"/>
<path d="M0 0 C3.28971348 4.93457022 2.61872755 10.24056798 2 16 C-0.28999771 23.85936107 -5.66835144 29.96937512 -12 35 C-14.59375 36.3125 -14.59375 36.3125 -17 37 C-17.99 36.67 -18.98 36.34 -20 36 C-20 35.34 -20 34.68 -20 34 C-17.03 33.505 -17.03 33.505 -14 33 C-14 32.34 -14 31.68 -14 31 C-12.34467377 29.98133771 -10.67739862 28.98189187 -9 28 C-8.67 27.34 -8.34 26.68 -8 26 C-7.34 26 -6.68 26 -6 26 C-5.34 24.68 -4.68 23.36 -4 22 C-3.34 22 -2.68 22 -2 22 C-1.67 18.7 -1.34 15.4 -1 12 C-0.67 12 -0.34 12 0 12 C0 8.04 0 4.08 0 0 Z " fill="#AB6B77" transform="translate(195,239)"/>
<path d="M0 0 C0.33 0 0.66 0 1 0 C1.33 1.65 1.66 3.3 2 5 C2.66 5 3.32 5 4 5 C3.835 5.763125 3.67 6.52625 3.5 7.3125 C2.90854604 10.03596236 2.90854604 10.03596236 3 13 C2.01 13.33 1.02 13.66 0 14 C0 15.32 0 16.64 0 18 C-0.66 18 -1.32 18 -2 18 C-2 18.99 -2 19.98 -2 21 C-2.99 21.33 -3.98 21.66 -5 22 C-4.34 20.35 -3.68 18.7 -3 17 C-3.47050781 17.433125 -3.94101563 17.86625 -4.42578125 18.3125 C-5.04839844 18.869375 -5.67101562 19.42625 -6.3125 20 C-6.92738281 20.556875 -7.54226562 21.11375 -8.17578125 21.6875 C-10 23 -10 23 -13 23 C-12.38511719 22.46632813 -11.77023438 21.93265625 -11.13671875 21.3828125 C-5.28844329 15.9915793 -2.50668257 11.7890108 -1 4 C-0.67255536 2.6652083 -0.34121267 1.33133873 0 0 Z " fill="#585C5C" transform="translate(115,94)"/>
<path d="M0 0 C0 0.33 0 0.66 0 1 C-3.63 1 -7.26 1 -11 1 C-11.33 2.65 -11.66 4.3 -12 6 C-13.99609375 7.765625 -13.99609375 7.765625 -16.4375 9.25 C-17.24058594 9.75015625 -18.04367188 10.2503125 -18.87109375 10.765625 C-20.22489163 11.55057937 -21.60030802 12.30015401 -23 13 C-23.33 12.34 -23.66 11.68 -24 11 C-24.99 11 -25.98 11 -27 11 C-24.77940459 9.1760468 -22.54958834 7.36602677 -20.3125 5.5625 C-19.68666016 5.04623047 -19.06082031 4.52996094 -18.41601562 3.99804688 C-12.06196344 -1.09184833 -7.87787753 -1.20171013 0 0 Z M-25 13 C-23 14 -23 14 -23 14 Z " fill="#676869" transform="translate(175,30)"/>
<path d="M0 0 C2 1 2 1 2.61328125 2.7109375 C3.06384119 5.37788828 3.16927335 7.92016486 3.1875 10.625 C3.20167969 11.58664063 3.21585938 12.54828125 3.23046875 13.5390625 C3 16 3 16 1 18 C0.35232207 20.57061311 0.35232207 20.57061311 0 23 C-0.66 23 -1.32 23 -2 23 C-2.33 23.99 -2.66 24.98 -3 26 C-3.99 26.33 -4.98 26.66 -6 27 C-7.20882096 29.00016466 -7.20882096 29.00016466 -8 31 C-8.99 31 -9.98 31 -11 31 C-10.360625 30.21625 -9.72125 29.4325 -9.0625 28.625 C-7.01857687 26.20460719 -7.01857687 26.20460719 -6 24 C-5.34 24 -4.68 24 -4 24 C-1.31816391 18.8151169 -0.89849144 14.65083713 -1 8.875 C-1.04576155 6.24371069 -1.04711723 3.63267512 -1 1 C-0.67 0.67 -0.34 0.34 0 0 Z " fill="#A34451" transform="translate(193,238)"/>
<path d="M0 0 C0.33 0 0.66 0 1 0 C1.33 2.64 1.66 5.28 2 8 C1.34 8 0.68 8 0 8 C0.33 12.62 0.66 17.24 1 22 C1.33 22 1.66 22 2 22 C2 23.98 2 25.96 2 28 C3.98 28.66 5.96 29.32 8 30 C8 31.32 8 32.64 8 34 C5 34 5 34 2.4375 32 C-2.29405947 26.17654219 -2.58323162 19.23431532 -2 12 C-1.4373344 7.97888117 -0.7559561 3.98901834 0 0 Z " fill="#666667" transform="translate(70,172)"/>
<path d="M0 0 C1.485 0.99 1.485 0.99 3 2 C4.9896995 2.39013716 6.99019869 2.73202649 9 3 C9 3.99 9 4.98 9 6 C10.13179687 6.12117188 11.26359375 6.24234375 12.4296875 6.3671875 C13.91151031 6.53600276 15.39327842 6.70529855 16.875 6.875 C17.62136719 6.95363281 18.36773437 7.03226562 19.13671875 7.11328125 C24.7734375 7.7734375 24.7734375 7.7734375 27 10 C22.53629461 12.23185269 15.56637829 11.81142843 10.875 10.328125 C9.25 9.5 9.25 9.5 7 8 C7 7.01 7 6.02 7 5 C6.21625 4.9175 5.4325 4.835 4.625 4.75 C2 4 2 4 0.6875 1.9375 C0.460625 1.298125 0.23375 0.65875 0 0 Z " fill="#BB4454" transform="translate(150,265)"/>
<path d="M0 0 C0 2.38333267 -0.05491033 4.69038702 -0.25 7.0625 C-0.29640625 7.75472656 -0.3428125 8.44695312 -0.390625 9.16015625 C-0.59171875 9.76730469 -0.7928125 10.37445313 -1 11 C-2.98 11.99 -2.98 11.99 -5 13 C-5 18.28 -5 23.56 -5 29 C-5.33 29 -5.66 29 -6 29 C-8.94337017 10.60393646 -8.94337017 10.60393646 -5.953125 5.05859375 C-4.625 3.75 -4.625 3.75 -2 2 C-1.34 1.34 -0.68 0.68 0 0 Z " fill="#527C80" transform="translate(59,72)"/>
<path d="M0 0 C2.49156264 2.19714442 3.52719242 3.9026271 4.421875 7.08984375 C4.64230469 7.87423828 4.86273438 8.65863281 5.08984375 9.46679688 C5.30769531 10.28212891 5.52554688 11.09746094 5.75 11.9375 C5.98332031 12.74896484 6.21664062 13.56042969 6.45703125 14.39648438 C8.2727767 21.02341163 8.2727767 21.02341163 7 25 C4.47740939 23.02579865 4.0070192 22.03254358 3.3125 18.8125 C3.1578125 17.4203125 3.1578125 17.4203125 3 16 C2.34 16 1.68 16 1 16 C-0.42857143 7.42857143 -0.42857143 7.42857143 2 4 C1.34 4 0.68 4 0 4 C0 2.68 0 1.36 0 0 Z " fill="#565958" transform="translate(217,75)"/>
<path d="M0 0 C1.98 0.66 3.96 1.32 6 2 C5.34 2.66 4.68 3.32 4 4 C4.96539204 6.30081665 4.96539204 6.30081665 7.8125 8.125 C11.4463319 11.0670904 13.44238153 14.62034336 15 19 C15 19.99 15 20.98 15 22 C14.34 22 13.68 22 13 22 C12.8040625 21.34773438 12.608125 20.69546875 12.40625 20.0234375 C10.2943 13.85144569 8.15893427 10.63991494 2.609375 7.15625 C2.07828125 6.7746875 1.5471875 6.393125 1 6 C1 5.34 1 4.68 1 4 C-4.28 3.67 -9.56 3.34 -15 3 C-13 1 -13 1 -9.1875 0.8125 C-6.02729249 0.88733187 -3.07681004 1.23079749 0 2 C0 1.34 0 0.68 0 0 Z " fill="#AE9955" transform="translate(271,65)"/>
<path d="M0 0 C1.91360971 0.21648378 3.83083621 0.40256968 5.75 0.5625 C6.73484375 0.64628906 7.7196875 0.73007813 8.734375 0.81640625 C9.48203125 0.87699219 10.2296875 0.93757812 11 1 C11 1.33 11 1.66 11 2 C10.23816406 2.10957031 9.47632813 2.21914062 8.69140625 2.33203125 C2.84191779 3.23026731 -2.55803402 4.31201738 -8.0625 6.51171875 C-10.37455529 7.09439397 -11.76327605 6.74391042 -14 6 C-13 3 -13 3 -11.07421875 1.796875 C-10.28660156 1.45140625 -9.49898437 1.1059375 -8.6875 0.75 C-7.90761719 0.39421875 -7.12773437 0.0384375 -6.32421875 -0.328125 C-3.64985898 -1.10121724 -2.61540809 -0.81577001 0 0 Z " fill="#58595B" transform="translate(163,210)"/>
<path d="M0 0 C0.99 0.33 1.98 0.66 3 1 C3 2.32 3 3.64 3 5 C3.99 5 4.98 5 6 5 C7.35432675 6.31200404 8.68733482 7.64631404 10 9 C10.99 9.33 11.98 9.66 13 10 C13 10.99 13 11.98 13 13 C13.928125 13.2165625 13.928125 13.2165625 14.875 13.4375 C17 14 17 14 19 15 C21.0374763 15.22858114 23.08040303 15.41024278 25.125 15.5625 C26.76855469 15.68818359 26.76855469 15.68818359 28.4453125 15.81640625 C29.28835937 15.87699219 30.13140625 15.93757813 31 16 C31 16.33 31 16.66 31 17 C21.67384993 17.51892025 14.46284552 17.33043225 6.96484375 11.38671875 C3.25990008 7.95565182 1.10907326 5.05244486 0 0 Z " fill="#AE8689" transform="translate(144,260)"/>
<path d="M0 0 C1.69962891 0.02320313 1.69962891 0.02320313 3.43359375 0.046875 C5.9820311 0.21231663 8.13356269 0.50997979 10.5625 1.25 C10.5625 2.24 10.5625 3.23 10.5625 4.25 C9.69367188 4.23839844 8.82484375 4.22679688 7.9296875 4.21484375 C6.77726562 4.20582031 5.62484375 4.19679688 4.4375 4.1875 C2.73207031 4.17009766 2.73207031 4.17009766 0.9921875 4.15234375 C-2.2504156 4.244673 -5.25682612 4.63610094 -8.4375 5.25 C-8.7675 4.59 -9.0975 3.93 -9.4375 3.25 C-6.76841309 -0.35944137 -4.2968466 -0.09754476 0 0 Z " fill="#8F8157" transform="translate(260.4375,62.75)"/>
<path d="M0 0 C0.33 1.65 0.66 3.3 1 5 C0.01 4.34 -0.98 3.68 -2 3 C-6.31109388 6.80390636 -8.93717622 10.99475699 -11.765625 15.98828125 C-12.37664062 16.98408203 -12.37664062 16.98408203 -13 18 C-13.33 18 -13.66 18 -14 18 C-13.67 15.03 -13.34 12.06 -13 9 C-12.34 9 -11.68 9 -11 9 C-10.7525 8.071875 -10.505 7.14375 -10.25 6.1875 C-8.16573222 0.87261716 -5.61532259 -0.46794355 0 0 Z " fill="#777877" transform="translate(116,143)"/>
<path d="M0 0 C0.99 0.66 1.98 1.32 3 2 C1.60411827 6.04224085 -0.30564036 8.94148485 -3 12.25 C-4.051875 13.55710938 -4.051875 13.55710938 -5.125 14.890625 C-7 17 -7 17 -9 18 C-9 16.68 -9 15.36 -9 14 C-8.34 14 -7.68 14 -7 14 C-7 12.68 -7 11.36 -7 10 C-6.34 10 -5.68 10 -5 10 C-4.9175 9.46375 -4.835 8.9275 -4.75 8.375 C-3.73623902 5.1647569 -1.92839451 2.73707608 0 0 Z " fill="#656666" transform="translate(209,169)"/>
<path d="M0 0 C0.99 0.33 1.98 0.66 3 1 C2.49396008 3.16874252 2.00016187 4.99967627 1 7 C0.01 7.33 -0.98 7.66 -2 8 C-1.67 9.32 -1.34 10.64 -1 12 C-1.99 12.495 -1.99 12.495 -3 13 C-3.28875 13.598125 -3.5775 14.19625 -3.875 14.8125 C-5.21530261 17.41864396 -6.80186531 19.07663215 -9 21 C-9.66 21 -10.32 21 -11 21 C-9.3003494 16.26525903 -6.86340973 12.03832889 -4.375 7.6875 C-3.95476562 6.94693359 -3.53453125 6.20636719 -3.1015625 5.44335938 C-2.07051505 3.62730989 -1.03563954 1.81343467 0 0 Z " fill="#606261" transform="translate(195,146)"/>
<path d="M0 0 C0.66 0.33 1.32 0.66 2 1 C2 1.99 2 2.98 2 4 C2.66 4 3.32 4 4 4 C4.33 5.32 4.66 6.64 5 8 C2.525 7.01 2.525 7.01 0 6 C-0.99 8.64 -1.98 11.28 -3 14 C-4.65 14 -6.3 14 -8 14 C-7.33333333 11.33333333 -6.66666667 8.66666667 -6 6 C-4.68 5.67 -3.36 5.34 -2 5 C-1.855625 4.360625 -1.71125 3.72125 -1.5625 3.0625 C-1 1 -1 1 0 0 Z " fill="#343635" transform="translate(224,140)"/>
<path d="M0 0 C1.258125 -0.020625 2.51625 -0.04125 3.8125 -0.0625 C4.52019531 -0.07410156 5.22789063 -0.08570313 5.95703125 -0.09765625 C8 0 8 0 11 1 C11 1.66 11 2.32 11 3 C11.75925781 2.98839844 12.51851562 2.97679687 13.30078125 2.96484375 C14.29464844 2.95582031 15.28851563 2.94679687 16.3125 2.9375 C17.29863281 2.92589844 18.28476563 2.91429687 19.30078125 2.90234375 C22 3 22 3 25 4 C25 4.66 25 5.32 25 6 C15.58357954 6.86477331 8.59614552 4.51375291 0 1 C0 0.67 0 0.34 0 0 Z " fill="#353536" transform="translate(90,211)"/>
<path d="M0 0 C2.18975883 3.28463824 4.20046549 6.65367814 6.1875 10.0625 C6.56841797 10.69994141 6.94933594 11.33738281 7.34179688 11.99414062 C8.29043379 13.62799986 9.1525749 15.31142702 10 17 C9.67 17.66 9.34 18.32 9 19 C6.9375 19.625 6.9375 19.625 5 20 C4.87625 19.278125 4.7525 18.55625 4.625 17.8125 C4.0095069 15.04278106 3.11555626 12.6029646 2 10 C1.34 10 0.68 10 0 10 C0 6.7 0 3.4 0 0 Z " fill="#666968" transform="translate(143,145)"/>
<path d="M0 0 C0.350625 0.94875 0.70125 1.8975 1.0625 2.875 C3.56441953 6.91035408 5.52193355 6.92194697 10 8 C10.33 8.99 10.66 9.98 11 11 C5.67316448 11.50731767 3.17473006 10.26718004 -1 7 C-3.375 4.875 -3.375 4.875 -5 3 C-5 2.34 -5 1.68 -5 1 C-3 0 -3 0 0 0 Z " fill="#5A8989" transform="translate(62,106)"/>
<path d="M0 0 C2 7.89915966 2 7.89915966 2 11 C2.66 11 3.32 11 4 11 C4.53394179 12.4117783 5.05165104 13.82970244 5.5625 15.25 C5.85253906 16.03890625 6.14257812 16.8278125 6.44140625 17.640625 C7.04522837 20.19103452 6.8473932 21.55322229 6 24 C1.52054693 20.21563447 0.25824999 14.53903529 -1 9 C-1.03596095 5.79048562 -0.63374444 3.16872222 0 0 Z " fill="#B19F73" transform="translate(233,85)"/>
<path d="M0 0 C1.31677734 -0.02126953 1.31677734 -0.02126953 2.66015625 -0.04296875 C4.9375 0.1875 4.9375 0.1875 6.9375 2.1875 C3.7625906 4.0953584 1.83164789 4.3484041 -1.8125 3.8125 C-2.61171875 3.70164063 -3.4109375 3.59078125 -4.234375 3.4765625 C-4.83765625 3.38117188 -5.4409375 3.28578125 -6.0625 3.1875 C-6.0625 4.1775 -6.0625 5.1675 -6.0625 6.1875 C-8.3725 6.5175 -10.6825 6.8475 -13.0625 7.1875 C-8.91954275 1.92482457 -6.94891111 0.05117018 0 0 Z " fill="#AB4758" transform="translate(169.0625,221.8125)"/>
<path d="M0 0 C0.33 0.99 0.66 1.98 1 3 C0.030625 3.70125 -0.93875 4.4025 -1.9375 5.125 C-4.54806894 7.2648106 -4.94982257 7.78256445 -5.75 11.25 C-5.8325 12.1575 -5.915 13.065 -6 14 C-6.99 14.495 -6.99 14.495 -8 15 C-8.02696365 16.79158489 -8.04637917 18.58328473 -8.0625 20.375 C-8.07410156 21.37273437 -8.08570313 22.37046875 -8.09765625 23.3984375 C-8.18006602 25.98432453 -8.18006602 25.98432453 -7 28 C-7.99 27.67 -8.98 27.34 -10 27 C-10.02709444 24.91673869 -10.04643873 22.83337559 -10.0625 20.75 C-10.07410156 19.58984375 -10.08570313 18.4296875 -10.09765625 17.234375 C-10.01782092 14.59022872 -9.78643778 12.50173909 -9 10 C-8.34 10 -7.68 10 -7 10 C-6.95875 9.278125 -6.9175 8.55625 -6.875 7.8125 C-5.61647835 3.76725183 -3.36410883 2.50518743 0 0 Z " fill="#B64453" transform="translate(154,230)"/>
<path d="M0 0 C0 0.66 0 1.32 0 2 C-5.75 3.125 -5.75 3.125 -8 2 C-8 2.99 -8 3.98 -8 5 C-11.57644848 6.2380014 -14.33694766 5.74926071 -18 5 C-18 5.66 -18 6.32 -18 7 C-20.31 7 -22.62 7 -25 7 C-25.33 6.01 -25.66 5.02 -26 4 C-25.04738281 3.96261719 -24.09476563 3.92523438 -23.11328125 3.88671875 C-21.85902344 3.82097656 -20.60476562 3.75523437 -19.3125 3.6875 C-17.45044922 3.60048828 -17.45044922 3.60048828 -15.55078125 3.51171875 C-9.52632219 2.64350738 -6.46737103 -0.38043359 0 0 Z " fill="#353637" transform="translate(252,210)"/>
<path d="M0 0 C2.99381354 2.80466193 5.1993621 5.61184269 7.3125 9.125 C8.11107422 10.42824219 8.11107422 10.42824219 8.92578125 11.7578125 C9.28027344 12.49773437 9.63476562 13.23765625 10 14 C9.67 14.66 9.34 15.32 9 16 C0.61022727 9.06931818 0.61022727 9.06931818 -1 3 C-0.67 2.01 -0.34 1.02 0 0 Z " fill="#606163" transform="translate(207,59)"/>
<path d="M0 0 C0.66 0.66 1.32 1.32 2 2 C-7.24 2 -16.48 2 -26 2 C-21.84567292 -0.07716354 -18.64122438 -0.45961712 -14.125 -0.6875 C-13.43019531 -0.73455078 -12.73539063 -0.78160156 -12.01953125 -0.83007812 C-7.863402 -1.06880118 -4.05026393 -0.99745306 0 0 Z " fill="#353737" transform="translate(182,117)"/>
<path d="M0 0 C1.32 0.33 2.64 0.66 4 1 C3.68306247 3.93167219 3.36774166 5.58982661 1.375 7.8125 C-1.8313755 9.41568775 -4.46750852 9.20379759 -8 9 C-8 8.34 -8 7.68 -8 7 C-7.13375 6.6596875 -7.13375 6.6596875 -6.25 6.3125 C-3.4336339 4.66961977 -1.91922886 2.60466773 0 0 Z " fill="#528B8E" transform="translate(94,107)"/>
<path d="M0 0 C3.9492568 0.55105909 7.34920174 1.38935371 11 3 C11 2.34 11 1.68 11 1 C10.34 0.67 9.68 0.34 9 0 C10.65 0 12.3 0 14 0 C13.98839844 0.68707031 13.97679687 1.37414062 13.96484375 2.08203125 C13.95582031 2.98308594 13.94679687 3.88414063 13.9375 4.8125 C13.92589844 5.70582031 13.91429687 6.59914063 13.90234375 7.51953125 C13.88990033 10.13413791 13.88990033 10.13413791 15 13 C14.01 13.495 14.01 13.495 13 14 C12.01 15.485 12.01 15.485 11 17 C11 13.37 11 9.74 11 6 C9.55625 5.38125 8.1125 4.7625 6.625 4.125 C3.84773744 2.93474462 2.15266842 2.15266842 0 0 Z " fill="#818382" transform="translate(188,121)"/>
<path d="M0 0 C1.8359375 0.79296875 1.8359375 0.79296875 2.8359375 2.79296875 C1.8459375 3.12296875 0.8559375 3.45296875 -0.1640625 3.79296875 C-0.6796875 4.30859375 -1.1953125 4.82421875 -1.7265625 5.35546875 C-2.2009375 5.82984375 -2.6753125 6.30421875 -3.1640625 6.79296875 C-3.8240625 6.79296875 -4.4840625 6.79296875 -5.1640625 6.79296875 C-5.4940625 7.78296875 -5.8240625 8.77296875 -6.1640625 9.79296875 C-6.8240625 9.46296875 -7.4840625 9.13296875 -8.1640625 8.79296875 C-9.3876693 8.71843315 -9.3876693 8.71843315 -11.1640625 9.79296875 C-9.80554119 6.70603171 -8.31895297 4.70655141 -5.7890625 2.48046875 C-4.91121094 1.68189453 -4.91121094 1.68189453 -4.015625 0.8671875 C-2.1640625 -0.20703125 -2.1640625 -0.20703125 0 0 Z " fill="#679394" transform="translate(66.1640625,66.20703125)"/>
<path d="M0 0 C8.03571429 -0.40178571 8.03571429 -0.40178571 12 3 C11.29875 2.96519531 10.5975 2.93039063 9.875 2.89453125 C3.39605925 2.70967017 -1.09189449 3.35153891 -7 6 C-7.99 6.391875 -8.98 6.78375 -10 7.1875 C-10.66 7.455625 -11.32 7.72375 -12 8 C-12 7.34 -12 6.68 -12 6 C-11.34 6 -10.68 6 -10 6 C-9.67 5.01 -9.34 4.02 -9 3 C-4.545 2.505 -4.545 2.505 0 2 C0 1.34 0 0.68 0 0 Z " fill="#44989D" transform="translate(75,66)"/>
<path d="M0 0 C6.09781001 -0.22084624 11.21642935 -0.01167675 17 2 C17.33 3.32 17.66 4.64 18 6 C15.03 6 12.06 6 9 6 C8.67 5.01 8.34 4.02 8 3 C8.33 2.67 8.66 2.34 9 2 C6.03 1.67 3.06 1.34 0 1 C0 0.67 0 0.34 0 0 Z " fill="#B4727A" transform="translate(165,221)"/>
<path d="M0 0 C0.33 0.66 0.66 1.32 1 2 C-4.91684902 11.48796499 -4.91684902 11.48796499 -9.4375 13.625 C-10.7059375 13.810625 -10.7059375 13.810625 -12 14 C-12 13.34 -12 12.68 -12 12 C-13.32 11.67 -14.64 11.34 -16 11 C-14.989375 10.608125 -13.97875 10.21625 -12.9375 9.8125 C-7.67883024 7.55725748 -3.19641567 4.7946235 0 0 Z " fill="#5E6160" transform="translate(183,167)"/>
<path d="M0 0 C3.99911714 3.65633567 8.09974245 7.83335379 10 13 C9.12890625 15.24609375 9.12890625 15.24609375 8 17 C7.67 16.01 7.34 15.02 7 14 C6.34 13.67 5.68 13.34 5 13 C2.11764017 9.89592018 1.89661381 8.13544774 2 4 C1.08431094 1.74867483 1.08431094 1.74867483 0 0 Z " fill="#656565" transform="translate(247,130)"/>
<path d="M0 0 C0.33 0.99 0.66 1.98 1 3 C0.53207031 3.41121094 0.06414062 3.82242188 -0.41796875 4.24609375 C-2.17589021 6.19499927 -2.62428288 7.55776422 -3.3125 10.0625 C-4.0390625 12.19140625 -4.0390625 12.19140625 -5 14 C-8.1875 15.5 -8.1875 15.5 -11 16 C-9.55049595 11.64352355 -7.32252888 8.68242711 -4.375 5.1875 C-3.55773437 4.21167969 -2.74046875 3.23585937 -1.8984375 2.23046875 C-1.27195312 1.49441406 -0.64546875 0.75835937 0 0 Z " fill="#68696A" transform="translate(93,127)"/>
<path d="M0 0 C0.66 0.33 1.32 0.66 2 1 C1.01 1.99 0.02 2.98 -1 4 C-0.67 2.68 -0.34 1.36 0 0 Z M-4 5 C-3.34 5 -2.68 5 -2 5 C-2 5.99 -2 6.98 -2 8 C-2.99 8.495 -2.99 8.495 -4 9 C-4.433125 9.7425 -4.86625 10.485 -5.3125 11.25 C-7.21530945 14.35087466 -9.26485277 16.60674617 -12 19 C-12.99 19 -13.98 19 -15 19 C-13 16.33333333 -11 13.66666667 -9 11 C-8.48050781 10.29359375 -7.96101562 9.5871875 -7.42578125 8.859375 C-6 7 -6 7 -4 5 Z " fill="#323433" transform="translate(192,158)"/>
<path d="M0 0 C0.33 0.66 0.66 1.32 1 2 C2.32 2 3.64 2 5 2 C3.50163895 5.11198065 1.80066242 8.0534615 0 11 C-0.33 10.34 -0.66 9.68 -1 9 C-1.66 9 -2.32 9 -3 9 C-3.33 10.32 -3.66 11.64 -4 13 C-4.33 12.34 -4.66 11.68 -5 11 C-4.00390625 8.3984375 -4.00390625 8.3984375 -2.5625 5.375 C-2.08941406 4.37210938 -1.61632812 3.36921875 -1.12890625 2.3359375 C-0.75636719 1.56507813 -0.38382812 0.79421875 0 0 Z " fill="#5E5F60" transform="translate(81,143)"/>
<path d="M0 0 C0.763125 0.20625 1.52625 0.4125 2.3125 0.625 C1.3125 3.625 1.3125 3.625 -1.3046875 5.046875 C-2.91730469 5.70429688 -2.91730469 5.70429688 -4.5625 6.375 C-6.16738281 7.04789063 -6.16738281 7.04789063 -7.8046875 7.734375 C-10.6875 8.625 -10.6875 8.625 -13.6875 7.625 C-13.0275 7.625 -12.3675 7.625 -11.6875 7.625 C-11.6875 6.635 -11.6875 5.645 -11.6875 4.625 C-9.0475 4.625 -6.4075 4.625 -3.6875 4.625 C-3.6875 3.965 -3.6875 3.305 -3.6875 2.625 C-4.3475 2.295 -5.0075 1.965 -5.6875 1.625 C-2.6875 -0.375 -2.6875 -0.375 0 0 Z " fill="#494B4A" transform="translate(255.6875,207.375)"/>
<path d="M0 0 C0.70189453 0.00451172 1.40378906 0.00902344 2.12695312 0.01367188 C3.85550538 0.02543073 5.58401365 0.04336546 7.3125 0.0625 C7.3125 1.0525 7.3125 2.0425 7.3125 3.0625 C4.8747037 3.11647335 2.43810315 3.15615616 0 3.1875 C-1.03543945 3.21263672 -1.03543945 3.21263672 -2.09179688 3.23828125 C-5.85885396 3.27467794 -7.47181704 3.20628864 -10.6875 1.0625 C-7.06882441 -0.1437252 -3.76243749 -0.04566918 0 0 Z " fill="#313333" transform="translate(184.6875,94.9375)"/>
<path d="M0 0 C1.65 0.33 3.3 0.66 5 1 C5.33 1.99 5.66 2.98 6 4 C6.99 4.33 7.98 4.66 9 5 C8.67 5.99 8.34 6.98 8 8 C4.32579134 7.69381595 3.21864487 7.24228216 0.6875 4.4375 C0.130625 3.633125 -0.42625 2.82875 -1 2 C-0.67 1.34 -0.34 0.68 0 0 Z " fill="#4B4E4D" transform="translate(175,59)"/>
<path d="M0 0 C3.2745227 4.91178404 2.66825049 10.26472399 2 16 C0.69335823 19.58757393 -0.9624756 22.77634533 -3 26 C-3.33 24.68 -3.66 23.36 -4 22 C-3.34 22 -2.68 22 -2 22 C-1.67 18.7 -1.34 15.4 -1 12 C-0.67 12 -0.34 12 0 12 C0 8.04 0 4.08 0 0 Z " fill="#B4868C" transform="translate(195,239)"/>
<path d="M0 0 C2.69457601 1.82535794 3.86432408 3.34187053 4.5234375 6.5390625 C4.99564046 11.27385432 5.10667322 15.34521415 4 20 C3.67 20 3.34 20 3 20 C1.85768588 13.34574301 0.77397533 6.70778622 0 0 Z " fill="#323333" transform="translate(241,168)"/>
<path d="M0 0 C4.29 0 8.58 0 13 0 C12.67 0.99 12.34 1.98 12 3 C7.71 3 3.42 3 -1 3 C-0.67 2.01 -0.34 1.02 0 0 Z " fill="#363638" transform="translate(137,214)"/>
<path d="M0 0 C4.66666667 4 9.33333333 8 14 12 C13.67 12.66 13.34 13.32 13 14 C11.02 12.35 9.04 10.7 7 9 C6.67 9.66 6.34 10.32 6 11 C6 10.34 6 9.68 6 9 C5.01 9 4.02 9 3 9 C2 6 1 3 0 0 Z " fill="#828383" transform="translate(228,109)"/>
<path d="M0 0 C1.875 0.625 1.875 0.625 4 2 C5.25 5.125 5.25 5.125 6 8 C5.67 8 5.34 8 5 8 C4.67 9.65 4.34 11.3 4 13 C3.34 12.34 2.68 11.68 2 11 C2 10.01 2 9.02 2 8 C1.34 8 0.68 8 0 8 C0 5.36 0 2.72 0 0 Z " fill="#5D9DA1" transform="translate(98,73)"/>
<path d="M0 0 C1.21386936 3.64160808 0.6674695 4.33165469 -0.9375 7.6875 C-1.31777344 8.49574219 -1.69804687 9.30398437 -2.08984375 10.13671875 C-2.39019531 10.75160156 -2.69054687 11.36648437 -3 12 C-3.66 12 -4.32 12 -5 12 C-5 12.66 -5 13.32 -5 14 C-5.99 14.33 -6.98 14.66 -8 15 C-6.51194289 9.19657726 -3.40902445 4.82409121 0 0 Z " fill="#6C6E6E" transform="translate(130,61)"/>
<path d="M0 0 C1.0625 1.875 1.0625 1.875 2 4 C1.67 4.66 1.34 5.32 1 6 C0.34 6 -0.32 6 -1 6 C-1 7.65 -1 9.3 -1 11 C-5.62 11 -10.24 11 -15 11 C-15 10.67 -15 10.34 -15 10 C-10.71 10 -6.42 10 -2 10 C-2.66 7.03 -3.32 4.06 -4 1 C-2.68 1.33 -1.36 1.66 0 2 C0 1.34 0 0.68 0 0 Z " fill="#878989" transform="translate(197,84)"/>
<path d="M0 0 C4.2742558 1.5830577 6.26531794 4.50568404 9 8 C6 9 6 9 3 9 C1.4375 6.625 1.4375 6.625 0 4 C-0.66 3.34 -1.32 2.68 -2 2 C-1.34 2 -0.68 2 0 2 C0 1.34 0 0.68 0 0 Z " fill="#2B2D2D" transform="translate(235,118)"/>
<path d="M0 0 C-1.49041773 3.79379058 -3.69062512 5.68343758 -7 8 C-7.66 8 -8.32 8 -9 8 C-9.33 6.68 -9.66 5.36 -10 4 C-4 0 -4 0 0 0 Z " fill="#666867" transform="translate(270,200)"/>
<path d="M0 0 C1.16144531 0.00902344 2.32289063 0.01804687 3.51953125 0.02734375 C4.39996094 0.03894531 5.28039062 0.05054687 6.1875 0.0625 C0.82903053 3.63481298 -4.578275 3.18473971 -10.8125 3.0625 C-11.1425 2.4025 -11.4725 1.7425 -11.8125 1.0625 C-7.81454108 0.10630267 -4.10446078 -0.0414592 0 0 Z " fill="#313333" transform="translate(155.8125,94.9375)"/>
<path d="M0 0 C3.68646141 1.45855647 5.16143971 3.30229045 7.25 6.625 C8.03117188 7.85089844 8.03117188 7.85089844 8.828125 9.1015625 C9.21484375 9.72804687 9.6015625 10.35453125 10 11 C9.67 11.66 9.34 12.32 9 13 C8.34 13 7.68 13 7 13 C4.52055587 8.72509633 2.16800807 4.44441654 0 0 Z " fill="#AC7F87" transform="translate(185,226)"/>
<path d="M0 0 C6.59900288 2.79188583 10.31756738 6.82613671 13.3359375 13.1328125 C14 15 14 15 14 18 C13.34 18 12.68 18 12 18 C11.70609375 17.02160156 11.70609375 17.02160156 11.40625 16.0234375 C9.2943 9.85144569 7.15893427 6.63991494 1.609375 3.15625 C1.07828125 2.7746875 0.5471875 2.393125 0 2 C0 1.34 0 0.68 0 0 Z " fill="#C2A344" transform="translate(272,69)"/>
<path d="M0 0 C4.04420651 1.77945087 7.46078487 4.39529673 11 7 C9 8 9 8 5.5625 7.25 C2.39111319 6.1372327 0.99575677 5.58274406 -1 3 C-0.67 2.01 -0.34 1.02 0 0 Z " fill="#666867" transform="translate(183,35)"/>
<path d="M0 0 C0.33 0 0.66 0 1 0 C1.33 2.64 1.66 5.28 2 8 C1.34 8 0.68 8 0 8 C0 12.29 0 16.58 0 21 C-0.66 21 -1.32 21 -2 21 C-2.24091535 13.7725395 -1.34495828 7.09705662 0 0 Z " fill="#989899" transform="translate(70,172)"/>
<path d="M0 0 C0.33 0 0.66 0 1 0 C1 4.95 1 9.9 1 15 C-0.65 15.33 -2.3 15.66 -4 16 C-4 15.34 -4 14.68 -4 14 C-3.34 13.67 -2.68 13.34 -2 13 C-1.56893307 10.21663762 -1.56893307 10.21663762 -1.4375 7 C-1.09637046 1.09637046 -1.09637046 1.09637046 0 0 Z " fill="#373939" transform="translate(269,185)"/>
<path d="M0 0 C0.66 0.33 1.32 0.66 2 1 C0.71580959 2.67243402 -0.57757185 4.33781447 -1.875 6 C-2.59429687 6.928125 -3.31359375 7.85625 -4.0546875 8.8125 C-4.69664063 9.534375 -5.33859375 10.25625 -6 11 C-6.66 11 -7.32 11 -8 11 C-8.33 11.99 -8.66 12.98 -9 14 C-9.5 11.4375 -9.5 11.4375 -9 8 C-6.58224788 5.33885002 -3.84673787 3.18470581 -1 1 C-0.67 0.67 -0.34 0.34 0 0 Z " fill="#2B2F2F" transform="translate(111,110)"/>
<path d="M0 0 C-6.36150605 0.65486092 -12.60371021 1.12068471 -19 1 C-14.36063214 -3.63936786 -5.39181528 -3.03814981 0 0 Z " fill="#92A5A5" transform="translate(87,64)"/>
<path d="M0 0 C2.70108504 0.090916 5.36930311 0.23740766 8.0625 0.4375 C9.20041992 0.51581055 9.20041992 0.51581055 10.36132812 0.59570312 C12.24121722 0.72575835 14.12065685 0.86228038 16 1 C14 3 14 3 11.28515625 3.265625 C10.22167969 3.26046875 9.15820312 3.2553125 8.0625 3.25 C6.47115234 3.25773437 6.47115234 3.25773437 4.84765625 3.265625 C2 3 2 3 -1 1 C-0.67 0.67 -0.34 0.34 0 0 Z " fill="#813840" transform="translate(161,273)"/>
<path d="M0 0 C0 0.99 0 1.98 0 3 C-1.65614657 3.38218767 -3.32457024 3.71395102 -5 4 C-5.33 3.67 -5.66 3.34 -6 3 C-8.18292774 2.76518307 -10.37203174 2.58636677 -12.5625 2.4375 C-14.35880859 2.31181641 -14.35880859 2.31181641 -16.19140625 2.18359375 C-17.11824219 2.12300781 -18.04507813 2.06242188 -19 2 C-19 1.67 -19 1.34 -19 1 C-16.95857606 0.83038614 -14.91684689 0.66444404 -12.875 0.5 C-11.16957031 0.36078125 -11.16957031 0.36078125 -9.4296875 0.21875 C-6.27402851 0.0174779 -3.16078835 -0.03842904 0 0 Z " fill="#8A8B8B" transform="translate(232,192)"/>
<path d="M0 0 C1.2065625 0.0309375 1.2065625 0.0309375 2.4375 0.0625 C1.82759109 3.62030196 0.8591319 6.7453589 -0.5625 10.0625 C-0.8925 8.7425 -1.2225 7.4225 -1.5625 6.0625 C-2.2225 6.0625 -2.8825 6.0625 -3.5625 6.0625 C-3.605221 4.39638095 -3.60313832 2.72867115 -3.5625 1.0625 C-2.5625 0.0625 -2.5625 0.0625 0 0 Z " fill="#5E5E5E" transform="translate(99.5625,160.9375)"/>
<path d="M0 0 C-3.20707942 2.13805295 -6.36805386 3.40820496 -9.94140625 4.8046875 C-12.37633052 6.2185145 -12.99898994 7.41360643 -14 10 C-14.25 7.75 -14.25 7.75 -14 5 C-9.77786461 -0.27766924 -6.54430021 -1.48734096 0 0 Z " fill="#8C8D8C" transform="translate(152,121)"/>
<path d="M0 0 C0.99 0.495 0.99 0.495 2 1 C2 2.32 2 3.64 2 5 C2.66 5 3.32 5 4 5 C4.05447047 6.41623216 4.09300508 7.83308191 4.125 9.25 C4.14820313 10.03890625 4.17140625 10.8278125 4.1953125 11.640625 C3.9828378 14.20731941 3.28654105 15.7916067 2 18 C0.81304447 14.43913342 0.64904582 11.02668976 0.4375 7.3125 C0.39431641 6.61060547 0.35113281 5.90871094 0.30664062 5.18554688 C0.2008264 3.45724794 0.09993419 1.7286489 0 0 Z " fill="#E1B54D" transform="translate(282,82)"/>
<path d="M0 0 C1.32 0.33 2.64 0.66 4 1 C2.67523097 4.9743071 1.03702088 7.15279292 -2 10 C-2.66 10.99 -3.32 11.98 -4 13 C-3.50269348 8.02693484 -2.44697666 4.36200187 0 0 Z " fill="#6B6D6D" transform="translate(121,76)"/>
<path d="M0 0 C1.7492214 -0.08142927 3.49954542 -0.13938541 5.25 -0.1875 C6.22453125 -0.22230469 7.1990625 -0.25710937 8.203125 -0.29296875 C11.37468742 0.03924798 12.67040307 0.88672279 15 3 C13.25008666 3.02715383 11.50005055 3.04646551 9.75 3.0625 C8.28820312 3.07990234 8.28820312 3.07990234 6.796875 3.09765625 C4.34241322 3.01195577 2.33831086 2.70706066 0 2 C0 1.34 0 0.68 0 0 Z " fill="#343636" transform="translate(189,214)"/>
<path d="M0 0 C2.97 0 5.94 0 9 0 C9.33 1.65 9.66 3.3 10 5 C9.01 5.495 9.01 5.495 8 6 C7.67 5.34 7.34 4.68 7 4 C4.67843403 3.59270772 2.3431213 3.25561323 0 3 C0 2.01 0 1.02 0 0 Z " fill="#3C3E3D" transform="translate(165,56)"/>
<path d="M0 0 C4.43909781 1.39514503 6.98024981 3.47695811 10 7 C10.8125 9.3125 10.8125 9.3125 11 11 C9 11 9 11 7.4375 9.6875 C6 8 6 8 5 5 C4.34 4.67 3.68 4.34 3 4 C1 3 1 3 0 0 Z " fill="#3A3D3E" transform="translate(186,43)"/>
<path d="M0 0 C0.99 0.66 1.98 1.32 3 2 C2.67 3.98 2.34 5.96 2 8 C1.01 8.33 0.02 8.66 -1 9 C-1.66 9.99 -2.32 10.98 -3 12 C-3.34833144 7.12335991 -2.41685712 4.22949995 0 0 Z " fill="#AE985C" transform="translate(285,96)"/>
<path d="M0 0 C3 1 3 1 4.1796875 3.07421875 C5.19410477 6.69230703 5.21756036 10.09228565 5.125 13.8125 C5.11597656 14.50537109 5.10695313 15.19824219 5.09765625 15.91210938 C5.07426157 17.60822395 5.03839641 19.30415871 5 21 C4.67 21 4.34 21 4 21 C3.96261719 20.03578125 3.92523438 19.0715625 3.88671875 18.078125 C3.82097656 16.81484375 3.75523437 15.5515625 3.6875 14.25 C3.62949219 12.99703125 3.57148438 11.7440625 3.51171875 10.453125 C2.98305767 6.88567158 2.25102968 5.67950987 0 3 C0 2.01 0 1.02 0 0 Z " fill="#B6AC96" transform="translate(284,77)"/>
<path d="M0 0 C2.375 0.6875 2.375 0.6875 5 2 C6.3125 4.625 6.3125 4.625 7 7 C5.35 6.67 3.7 6.34 2 6 C1.67 5.01 1.34 4.02 1 3 C-1.01508358 2.26676204 -1.01508358 2.26676204 -3 2 C-2.01 2 -1.02 2 0 2 C0 1.34 0 0.68 0 0 Z " fill="#4F7D81" transform="translate(90,66)"/>
<path d="M0 0 C0 3.81234486 -0.34220353 7.23262021 -1 11 C-1.99 11.66 -2.98 12.32 -4 13 C-3.979375 12.21625 -3.95875 11.4325 -3.9375 10.625 C-3.81315937 8.01885039 -3.81315937 8.01885039 -5 6 C-3.35 4.02 -1.7 2.04 0 0 Z " fill="#377277" transform="translate(59,72)"/>
<path d="M0 0 C0.66 0.33 1.32 0.66 2 1 C0.52202738 4.67056937 -1.47615477 6.41085783 -4.625 8.75 C-5.44226563 9.36359375 -6.25953125 9.9771875 -7.1015625 10.609375 C-7.72804687 11.06828125 -8.35453125 11.5271875 -9 12 C-9 9 -9 9 -7.03125 6.73828125 C-5.77828125 5.53751953 -5.77828125 5.53751953 -4.5 4.3125 C-3.6646875 3.50425781 -2.829375 2.69601563 -1.96875 1.86328125 C-1.3190625 1.24839844 -0.669375 0.63351563 0 0 Z " fill="#888A8A" transform="translate(146,42)"/>
<path d="M0 0 C1.2065625 0.0309375 1.2065625 0.0309375 2.4375 0.0625 C2.4375 0.7225 2.4375 1.3825 2.4375 2.0625 C3.7575 1.7325 5.0775 1.4025 6.4375 1.0625 C7.0975 2.3825 7.7575 3.7025 8.4375 5.0625 C-0.13392857 4.34821429 -0.13392857 4.34821429 -3.5625 1.0625 C-2.5625 0.0625 -2.5625 0.0625 0 0 Z " fill="#383737" transform="translate(178.5625,209.9375)"/>
<path d="M0 0 C4.75 0.75 4.75 0.75 7 3 C7.40047444 5.32275177 7.7397104 7.65739357 8 10 C4.71211176 6.88983545 2.16264012 3.98381075 0 0 Z " fill="#717372" transform="translate(129,174)"/>
<path d="M0 0 C0.66 0.33 1.32 0.66 2 1 C1.42365861 5.75481646 -0.55068521 8.97048212 -3 13 C-3.33 13 -3.66 13 -4 13 C-3.67 10.03 -3.34 7.06 -3 4 C-2.34 4 -1.68 4 -1 4 C-0.67 2.68 -0.34 1.36 0 0 Z " fill="#656566" transform="translate(106,148)"/>
<path d="M0 0 C7.75 -0.125 7.75 -0.125 10 1 C10 1.66 10 2.32 10 3 C12.31 3 14.62 3 17 3 C17 3.33 17 3.66 17 4 C11.25883676 4.23433319 6.4132466 4.02996747 1 2 C0.67 1.34 0.34 0.68 0 0 Z " fill="#E7B848" transform="translate(248,113)"/>
<path d="M0 0 C0.66 0 1.32 0 2 0 C1.88655624 2.1464753 1.75893655 4.29220592 1.625 6.4375 C1.52058594 8.22994141 1.52058594 8.22994141 1.4140625 10.05859375 C1.27742187 11.02925781 1.14078125 11.99992187 1 13 C0.01 13.495 0.01 13.495 -1 14 C-1.93402724 8.58264203 -2.20808081 5.19548425 0 0 Z " fill="#978140" transform="translate(235,83)"/>
<path d="M0 0 C0.99 0.33 1.98 0.66 3 1 C2.49396008 3.16874252 2.00016187 4.99967627 1 7 C0.01 7.33 -0.98 7.66 -2 8 C-2.33 8.99 -2.66 9.98 -3 11 C-3.66 11 -4.32 11 -5 11 C-3.55049545 7.2089881 -1.84827434 3.6125362 0 0 Z " fill="#6B6C6B" transform="translate(195,146)"/>
<path d="M0 0 C4.72903929 -0.32993297 7.09555087 0.3618587 11 3 C11.99 3.33 12.98 3.66 14 4 C14 4.66 14 5.32 14 6 C12.22604492 5.57533503 10.45589369 5.1347591 8.6875 4.6875 C7.70136719 4.44386719 6.71523437 4.20023437 5.69921875 3.94921875 C2.99858988 2.99950411 1.79043784 2.18152323 0 0 Z " fill="#303332" transform="translate(185,118)"/>
<path d="M0 0 C0.33 0.99 0.66 1.98 1 3 C1.66 3 2.32 3 3 3 C2.39816251 5.02045442 1.72693904 7.02111039 1 9 C0.01 9.495 0.01 9.495 -1 10 C-1.33 7.36 -1.66 4.72 -2 2 C-1.34 2 -0.68 2 0 2 C0 1.34 0 0.68 0 0 Z " fill="#5C5E60" transform="translate(213,161)"/>
<path d="M0 0 C1.65 1.65 3.3 3.3 5 5 C4 7 4 7 2 10 C1.34 10 0.68 10 0 10 C0 8.35 0 6.7 0 5 C-0.66 4.67 -1.32 4.34 -2 4 C-1.01 3.67 -0.02 3.34 1 3 C0.67 2.01 0.34 1.02 0 0 Z " fill="#5C5D5D" transform="translate(242,123)"/>
<path d="M0 0 C0.66 0 1.32 0 2 0 C2.125 2.375 2.125 2.375 2 5 C1.34 5.66 0.68 6.32 0 7 C-0.69748583 8.31747324 -1.36959957 9.64914193 -2 11 C-3.14947895 7.44706507 -3.0868937 6.20023331 -1.5625 2.6875 C-1.046875 1.800625 -0.53125 0.91375 0 0 Z " fill="#323535" transform="translate(120,83)"/>
<path d="M0 0 C0.33 0.99 0.66 1.98 1 3 C-1 6 -1 6 -4 7 C-5.20882096 9.00016466 -5.20882096 9.00016466 -6 11 C-6.99 11 -7.98 11 -9 11 C-8.360625 10.21625 -7.72125 9.4325 -7.0625 8.625 C-5.01857687 6.20460719 -5.01857687 6.20460719 -4 4 C-3.34 4 -2.68 4 -2 4 C-1.34 2.68 -0.68 1.36 0 0 Z " fill="#BD4757" transform="translate(191,258)"/>
<path d="M0 0 C0.25 2.3125 0.25 2.3125 0 5 C-1.875 6.625 -1.875 6.625 -4 8 C-4.66 8.99 -5.32 9.98 -6 11 C-5.50877193 3.50877193 -5.50877193 3.50877193 -3 1 C-1 0 -1 0 0 0 Z " fill="#393B3A" transform="translate(200,183)"/>
<path d="M0 0 C0.99 0.495 0.99 0.495 2 1 C2.63385922 3.04243528 3.01826504 5.09132519 3.4375 7.1875 C3.623125 7.785625 3.80875 8.38375 4 9 C4.66 9.33 5.32 9.66 6 10 C4.35 10.33 2.7 10.66 1 11 C0.30710631 7.27569643 -0.11144596 3.78916254 0 0 Z " fill="#343435" transform="translate(92,180)"/>
<path d="M0 0 C3 1 3 1 4.75 3.4375 C5.36875 4.7059375 5.36875 4.7059375 6 6 C5.67 6.66 5.34 7.32 5 8 C2.9375 8.625 2.9375 8.625 1 9 C0.855625 8.236875 0.71125 7.47375 0.5625 6.6875 C0.0367406 3.91827092 0.0367406 3.91827092 -1 1 C-0.67 0.67 -0.34 0.34 0 0 Z " fill="#545859" transform="translate(147,156)"/>
<path d="M0 0 C0.33 2.64 0.66 5.28 1 8 C-1.04119788 6.38405168 -3.04072937 4.7143618 -5 3 C-5 2.34 -5 1.68 -5 1 C-3 0 -3 0 0 0 Z " fill="#6A9C9C" transform="translate(62,106)"/>
<path d="M0 0 C0.33 0 0.66 0 1 0 C1.33 1.65 1.66 3.3 2 5 C2.66 5 3.32 5 4 5 C2.79180633 8.624581 2.19658087 8.40170957 -1 10 C-1.65213292 12.02463255 -1.65213292 12.02463255 -2 14 C-3.49341969 11.01316063 -2.40648676 9.04839022 -1.5625 5.875 C-1.27503906 4.77929688 -0.98757812 3.68359375 -0.69140625 2.5546875 C-0.46324219 1.71164063 -0.23507813 0.86859375 0 0 Z " fill="#858787" transform="translate(115,94)"/>
<path d="M0 0 C0.33 0.66 0.66 1.32 1 2 C1.66 2 2.32 2 3 2 C1.92598892 4.91517292 1.22189824 6.77810176 -1 9 C-1.66 7.02 -2.32 5.04 -3 3 C-2.01 2.01 -1.02 1.02 0 0 Z " fill="#5D5F5F" transform="translate(147,78)"/>
<path d="M0 0 C2.31 0 4.62 0 7 0 C7.33 1.32 7.66 2.64 8 4 C5.69 3.67 3.38 3.34 1 3 C0.67 2.01 0.34 1.02 0 0 Z " fill="#4A6D70" transform="translate(82,64)"/>
<path d="M0 0 C3.68754757 0.49831724 5.60490662 1.10067643 8 4 C5.69 4.33 3.38 4.66 1 5 C1 4.34 1 3.68 1 3 C0.34 2.67 -0.32 2.34 -1 2 C-0.67 1.34 -0.34 0.68 0 0 Z " fill="#616263" transform="translate(175,31)"/>
<path d="M0 0 C1.485 0.99 1.485 0.99 3 2 C3.6875 5.625 3.6875 5.625 4 9 C3.67 8.01 3.34 7.02 3 6 C2.34 6 1.68 6 1 6 C0.67 6.66 0.34 7.32 0 8 C-0.33 7.67 -0.66 7.34 -1 7 C-0.71269945 4.66055264 -0.38063221 2.3260857 0 0 Z " fill="#5F6160" transform="translate(265,167)"/>
<path d="M0 0 C1.32 0.66 2.64 1.32 4 2 C4 2.66 4 3.32 4 4 C3.34 4 2.68 4 2 4 C1.67 4.99 1.34 5.98 1 7 C0.34 7 -0.32 7 -1 7 C-1.33 7.99 -1.66 8.98 -2 10 C-1.54177532 6.53058454 -1.10868317 3.32604951 0 0 Z " fill="#69696A" transform="translate(75,156)"/>
<path d="M0 0 C1.09658936 3.28976808 0.79953138 4.71303767 0 8 C-1.32 8.33 -2.64 8.66 -4 9 C-4.25 6.75 -4.25 6.75 -4 4 C-2 1.6875 -2 1.6875 0 0 Z " fill="#343436" transform="translate(102,153)"/>
<path d="M0 0 C0 3 0 3 0 3 Z M-3 5 C-3 6.32 -3 7.64 -3 9 C-4.98 9 -6.96 9 -9 9 C-9 8.34 -9 7.68 -9 7 C-5.25 5 -5.25 5 -3 5 Z " fill="#353738" transform="translate(91,136)"/>
<path d="M0 0 C2 1 2 1 4 4 C3.360625 4.103125 2.72125 4.20625 2.0625 4.3125 C1.381875 4.539375 0.70125 4.76625 0 5 C-0.33 5.99 -0.66 6.98 -1 8 C-3.0625 8.6875 -3.0625 8.6875 -5 9 C-4.690625 8.4225 -4.38125 7.845 -4.0625 7.25 C-2.9327131 5.0661063 -2.9327131 5.0661063 -2.5 2.8125 C-2.335 2.214375 -2.17 1.61625 -2 1 C-1.34 0.67 -0.68 0.34 0 0 Z " fill="#C1A458" transform="translate(250,65)"/>
<path d="M0 0 C0.99 0 1.98 0 3 0 C1.84414715 3.91211733 0.64465038 6.8745041 -2 10 C-2.93423645 6.98968256 -3.04449911 6.13349732 -2 3 C-1.34 3 -0.68 3 0 3 C0 2.01 0 1.02 0 0 Z " fill="#6C6D6D" transform="translate(218,154)"/>
<path d="M0 0 C0.66 0 1.32 0 2 0 C2 1.65 2 3.3 2 5 C0.125 6.0625 0.125 6.0625 -2 7 C-2.66 6.67 -3.32 6.34 -4 6 C-3.67 4.68 -3.34 3.36 -3 2 C-2.01 2 -1.02 2 0 2 C0 1.34 0 0.68 0 0 Z " fill="#323635" transform="translate(196,151)"/>
<path d="M0 0 C0.66 0 1.32 0 2 0 C2 0.66 2 1.32 2 2 C2.99 2.33 3.98 2.66 5 3 C4.67 4.32 4.34 5.64 4 7 C3.67 6.34 3.34 5.68 3 5 C-0.62885324 4.84850702 -0.62885324 4.84850702 -4 6 C-3.67 5.01 -3.34 4.02 -3 3 C-2.34 3 -1.68 3 -1 3 C-0.67 2.01 -0.34 1.02 0 0 Z " fill="#333634" transform="translate(113,139)"/>
<path d="M0 0 C2.45823172 3.68734758 3.01242616 6.69699971 4 11 C2.68 11 1.36 11 0 11 C0 7.37 0 3.74 0 0 Z " fill="#555958" transform="translate(116,89)"/>
<path d="M0 0 C0.66 0.33 1.32 0.66 2 1 C1.360625 1.78375 0.72125 2.5675 0.0625 3.375 C-1.98142313 5.79539281 -1.98142313 5.79539281 -3 8 C-3.66 8 -4.32 8 -5 8 C-5.33 8.66 -5.66 9.32 -6 10 C-6.66 10 -7.32 10 -8 10 C-6.34908222 5.70761377 -3.26245434 3.1206085 0 0 Z " fill="#AB9773" transform="translate(246,67)"/>
<path d="M0 0 C0.66 0 1.32 0 2 0 C3.28317892 3.84953676 3.06643637 6.94738135 3 11 C0.39665076 8.28817788 0.00543309 7.10866187 -0.1875 3.25 C-0.125625 2.1775 -0.06375 1.105 0 0 Z " fill="#313332" transform="translate(266,173)"/>
<path d="M0 0 C2.375 0.1875 2.375 0.1875 5 1 C6.3125 3.5625 6.3125 3.5625 7 6 C4.0625 5.25 4.0625 5.25 1 4 C0.125 1.875 0.125 1.875 0 0 Z " fill="#313435" transform="translate(154,170)"/>
<path d="M0 0 C0.66 0 1.32 0 2 0 C1.875 1.75 1.875 1.75 1 4 C-2.0625 6.25 -2.0625 6.25 -5 8 C-5.66 7.67 -6.32 7.34 -7 7 C-6.67 6.34 -6.34 5.68 -6 5 C-5.01 5 -4.02 5 -3 5 C-2.67 4.01 -2.34 3.02 -2 2 C-1.34 2 -0.68 2 0 2 C0 1.34 0 0.68 0 0 Z " fill="#B5A57D" transform="translate(277,111)"/>
<path d="M0 0 C1.98 0 3.96 0 6 0 C6 2.97 6 5.94 6 9 C4 6 2 3 0 0 Z " fill="#757777" transform="translate(137,184)"/>
<path d="M0 0 C0.99 0.66 1.98 1.32 3 2 C2.34 3.65 1.68 5.3 1 7 C0.01 6.34 -0.98 5.68 -2 5 C-1.125 1.125 -1.125 1.125 0 0 Z M-4 6 C-3.67 6.66 -3.34 7.32 -3 8 C-3.66 7.67 -4.32 7.34 -5 7 C-4.67 6.67 -4.34 6.34 -4 6 Z " fill="#555558" transform="translate(209,169)"/>
<path d="M0 0 C0.66 0.33 1.32 0.66 2 1 C1.67 2.65 1.34 4.3 1 6 C2.32 6.33 3.64 6.66 5 7 C5 7.99 5 8.98 5 10 C4.01 10 3.02 10 2 10 C0.25 7.8125 0.25 7.8125 -1 5 C-0.6875 2.1875 -0.6875 2.1875 0 0 Z " fill="#606362" transform="translate(125,162)"/>
<path d="M0 0 C0.66 0 1.32 0 2 0 C1.50769231 6.52307692 1.50769231 6.52307692 -1.0625 8.9375 C-1.701875 9.288125 -2.34125 9.63875 -3 10 C-2.69201674 8.51988629 -2.378482 7.04092675 -2.0625 5.5625 C-1.88847656 4.73878906 -1.71445313 3.91507813 -1.53515625 3.06640625 C-1 1 -1 1 0 0 Z " fill="#303231" transform="translate(201,134)"/>
<path d="M0 0 C2.79828356 0.38597015 3.8205884 0.80136573 5.75 2.9375 C7 5 7 5 7 7 C5.35 6.67 3.7 6.34 2 6 C2 4.68 2 3.36 2 2 C1.34 2 0.68 2 0 2 C0 1.34 0 0.68 0 0 Z " fill="#2A2E2D" transform="translate(224,108)"/>
<path d="M0 0 C0.99 0.33 1.98 0.66 3 1 C3 2.98 3 4.96 3 7 C2.01 7 1.02 7 0 7 C-1.125 2.25 -1.125 2.25 0 0 Z " fill="#333735" transform="translate(222,99)"/>
<path d="M0 0 C0.66 0.33 1.32 0.66 2 1 C0.25 5.875 0.25 5.875 -2 7 C-2.33 6.34 -2.66 5.68 -3 5 C-3.99 5 -4.98 5 -6 5 C-4.02 3.35 -2.04 1.7 0 0 Z M-4 7 C-2 8 -2 8 -2 8 Z " fill="#6E7172" transform="translate(154,36)"/>
<path d="M0 0 C1.09570312 0.10183594 2.19140625 0.20367187 3.3203125 0.30859375 C4.16335937 0.39238281 5.00640625 0.47617188 5.875 0.5625 C5.875 0.8925 5.875 1.2225 5.875 1.5625 C1.255 2.2225 -3.365 2.8825 -8.125 3.5625 C-8.125 2.5725 -8.125 1.5825 -8.125 0.5625 C-5.28943413 -0.85528293 -3.1341294 -0.30007622 0 0 Z " fill="#A3A6A3" transform="translate(168.125,210.4375)"/>
<path d="M0 0 C-0.66 0.66 -1.32 1.32 -2 2 C-4.6015625 1.9765625 -4.6015625 1.9765625 -7.625 1.625 C-8.62789063 1.51414062 -9.63078125 1.40328125 -10.6640625 1.2890625 C-11.82035156 1.14597656 -11.82035156 1.14597656 -13 1 C-13 0.67 -13 0.34 -13 0 C-8.38926889 -1.29676812 -4.66159911 -0.71109139 0 0 Z " fill="#6EA4A2" transform="translate(90,116)"/>
<path d="M0 0 C0.99 0.66 1.98 1.32 3 2 C2.34 3.98 1.68 5.96 1 8 C-0.32 6.35 -1.64 4.7 -3 3 C-2.01 2.01 -1.02 1.02 0 0 Z " fill="#65989E" transform="translate(102,97)"/>
<path d="M0 0 C0.66 0.33 1.32 0.66 2 1 C2 2.32 2 3.64 2 5 C2.66 5 3.32 5 4 5 C3.67 6.32 3.34 7.64 3 9 C2.67 8.34 2.34 7.68 2 7 C1.34 7 0.68 7 0 7 C-0.66 5.35 -1.32 3.7 -2 2 C-1.34 2 -0.68 2 0 2 C0 1.34 0 0.68 0 0 Z " fill="#2B2E2E" transform="translate(215,74)"/>
<path d="M0 0 C0.66 0.99 1.32 1.98 2 3 C1.67 3.99 1.34 4.98 1 6 C-0.65 6.33 -2.3 6.66 -4 7 C-2.92598892 4.08482708 -2.22189824 2.22189824 0 0 Z " fill="#626364" transform="translate(135,54)"/>
<path d="M0 0 C0.33 0.99 0.66 1.98 1 3 C-1.97 5.475 -1.97 5.475 -5 8 C-5.33 7.01 -5.66 6.02 -6 5 C-4.02 3.35 -2.04 1.7 0 0 Z " fill="#C6445C" transform="translate(154,230)"/>
<path d="M0 0 C-0.99 0 -1.98 0 -3 0 C-3.66 1.32 -4.32 2.64 -5 4 C-5.99 4 -6.98 4 -8 4 C-8 3.01 -8 2.02 -8 1 C-4.93251126 -0.86240388 -3.40254489 -1.2151946 0 0 Z " fill="#B37A84" transform="translate(164,223)"/>
<path d="M0 0 C0.33 0.66 0.66 1.32 1 2 C-0.65 4.31 -2.3 6.62 -4 9 C-4.99 8.34 -5.98 7.68 -7 7 C-6.21625 6.401875 -5.4325 5.80375 -4.625 5.1875 C-1.85425677 3.08914751 -1.85425677 3.08914751 0 0 Z " fill="#767877" transform="translate(183,167)"/>
<path d="M0 0 C0.66 0.66 1.32 1.32 2 2 C1.625 4.625 1.625 4.625 1 7 C0.01 7.33 -0.98 7.66 -2 8 C-1.125 1.125 -1.125 1.125 0 0 Z " fill="#373A3B" transform="translate(144,82)"/>
<path d="M0 0 C2.875 -0.125 2.875 -0.125 6 0 C6.66 0.66 7.32 1.32 8 2 C4.7 2.33 1.4 2.66 -2 3 C-1.34 2.67 -0.68 2.34 0 2 C0 1.34 0 0.68 0 0 Z " fill="#848686" transform="translate(234,215)"/>
<path d="M0 0 C2.97 0 5.94 0 9 0 C6.29811996 1.80125336 4.06942297 3.00243753 1 4 C0.01 3.67 -0.98 3.34 -2 3 C-1.34 3 -0.68 3 0 3 C0 2.01 0 1.02 0 0 Z " fill="#7F7F81" transform="translate(244,212)"/>
<path d="M0 0 C0 0.66 0 1.32 0 2 C-5.75 3.125 -5.75 3.125 -8 2 C-8 2.99 -8 3.98 -8 5 C-8.66 5 -9.32 5 -10 5 C-9.625 3.0625 -9.625 3.0625 -9 1 C-6.04335481 -0.4783226 -3.25770263 -0.06032783 0 0 Z " fill="#2F3032" transform="translate(252,210)"/>
<path d="M0 0 C2.64 1.98 5.28 3.96 8 6 C6.68 6.33 5.36 6.66 4 7 C3.01 7.495 3.01 7.495 2 8 C1.34 5.36 0.68 2.72 0 0 Z " fill="#8A8B8B" transform="translate(159,171)"/>
<path d="M0 0 C2.02350324 3.03525486 2.32124018 4.19426202 2.625 7.6875 C2.69976562 8.49574219 2.77453125 9.30398437 2.8515625 10.13671875 C2.90054688 10.75160156 2.94953125 11.36648437 3 12 C2.01 11.67 1.02 11.34 0 11 C0 7.37 0 3.74 0 0 Z " fill="#909493" transform="translate(222,88)"/>
<path d="M0 0 C0.99 0.33 1.98 0.66 3 1 C0.525 4.465 0.525 4.465 -2 8 C-2.66 7.01 -3.32 6.02 -4 5 C-2.68 4.34 -1.36 3.68 0 3 C0 2.01 0 1.02 0 0 Z " fill="#78797A" transform="translate(157,66)"/>
<path d="M0 0 C2.97 0 5.94 0 9 0 C9.33 0.66 9.66 1.32 10 2 C9.071875 2.144375 8.14375 2.28875 7.1875 2.4375 C3.99274889 2.92100111 3.99274889 2.92100111 1 4 C0.67 2.68 0.34 1.36 0 0 Z " fill="#848685" transform="translate(163,59)"/>
<path d="M0 0 C2.475 0.99 2.475 0.99 5 2 C5 2.99 5 3.98 5 5 C4.01 4.67 3.02 4.34 2 4 C1.67 4.66 1.34 5.32 1 6 C0.67 4.02 0.34 2.04 0 0 Z " fill="#525454" transform="translate(201,54)"/>
<path d="M0 0 C1.65 0 3.3 0 5 0 C5 0.99 5 1.98 5 3 C5.66 3.33 6.32 3.66 7 4 C5.35 4 3.7 4 2 4 C1.34 2.68 0.68 1.36 0 0 Z " fill="#995D63" transform="translate(152,270)"/>
<path d="M0 0 C0.66 0 1.32 0 2 0 C2 2.31 2 4.62 2 7 C0.68 6.67 -0.64 6.34 -2 6 C-1.34 4.02 -0.68 2.04 0 0 Z " fill="#B3505E" transform="translate(183,225)"/>
<path d="M0 0 C4.875 4.75 4.875 4.75 6 7 C3.97954558 6.39816251 1.97888961 5.72693904 0 5 C-0.33 4.34 -0.66 3.68 -1 3 C-0.67 2.01 -0.34 1.02 0 0 Z " fill="#787A7A" transform="translate(153,164)"/>
<path d="M0 0 C-0.33 2.97 -0.66 5.94 -1 9 C-2.9451 6.08235 -3.45276317 4.37462715 -4 1 C-2 0 -2 0 0 0 Z " fill="#797A79" transform="translate(242,164)"/>
<path d="M0 0 C2.62187494 1.04874998 3.79371361 1.64931313 5.25 4.125 C5.4975 4.74375 5.745 5.3625 6 6 C5.34 6 4.68 6 4 6 C3.67 6.66 3.34 7.32 3 8 C2.67 7.01 2.34 6.02 2 5 C1.34 4.01 0.68 3.02 0 2 C0 1.34 0 0.68 0 0 Z " fill="#2F3130" transform="translate(233,152)"/>
<path d="M0 0 C-0.33 0.66 -0.66 1.32 -1 2 C-3.06640625 2.4140625 -3.06640625 2.4140625 -5.5625 2.625 C-6.38878906 2.69976562 -7.21507812 2.77453125 -8.06640625 2.8515625 C-9.02353516 2.92503906 -9.02353516 2.92503906 -10 3 C-7.12787008 -0.11496306 -4.15361558 -2.07680779 0 0 Z " fill="#C29F45" transform="translate(275,114)"/>
<path d="M0 0 C1.98 0.99 1.98 0.99 4 2 C3.67 3.65 3.34 5.3 3 7 C2.34 6.67 1.68 6.34 1 6 C0.375 2.9375 0.375 2.9375 0 0 Z " fill="#5B8285" transform="translate(98,73)"/>
<path d="M0 0 C2.875 0.25 2.875 0.25 6 1 C7.375 3.0625 7.375 3.0625 8 5 C6.35 4.67 4.7 4.34 3 4 C2.67 3.01 2.34 2.02 2 1 C1.34 0.67 0.68 0.34 0 0 Z " fill="#807341" transform="translate(272,67)"/>
<path d="M0 0 C0.66 0.33 1.32 0.66 2 1 C0.25 5.875 0.25 5.875 -2 7 C-2.33 5.68 -2.66 4.36 -3 3 C-2.34 3 -1.68 3 -1 3 C-0.67 2.01 -0.34 1.02 0 0 Z " fill="#5E5F5F" transform="translate(207,174)"/>
<path d="M0 0 C0.99 0 1.98 0 3 0 C3.33 2.64 3.66 5.28 4 8 C0 3.375 0 3.375 0 0 Z " fill="#727373" transform="translate(230,149)"/>
<path d="M0 0 C1.875 0.75 1.875 0.75 2.875 2.75 C0.5625 3.375 0.5625 3.375 -2.125 3.75 C-3.115 3.09 -4.105 2.43 -5.125 1.75 C-2.125 -0.25 -2.125 -0.25 0 0 Z " fill="#628989" transform="translate(66.125,66.25)"/>
<path d="M0 0 C0.66 0.33 1.32 0.66 2 1 C0.63016497 4.16115776 0.0109362 4.9927092 -3 7 C-3 4 -3 4 -2 2 C-1.34 2 -0.68 2 0 2 C0 1.34 0 0.68 0 0 Z " fill="#A1636A" transform="translate(189,263)"/>
<path d="M0 0 C3.39914975 1.13304992 4.05254451 2.12518475 6 5 C5.67 5.66 5.34 6.32 5 7 C4.01 6.67 3.02 6.34 2 6 C0.8125 2.9375 0.8125 2.9375 0 0 Z " fill="#2E302F" transform="translate(244,129)"/>
<path d="M0 0 C0.33 0 0.66 0 1 0 C0.67 2.31 0.34 4.62 0 7 C-0.99 6.34 -1.98 5.68 -3 5 C-1.125 1.125 -1.125 1.125 0 0 Z " fill="#6A6F6F" transform="translate(101,118)"/>
<path d="M0 0 C1.65 1.65 3.3 3.3 5 5 C4.01 6.485 4.01 6.485 3 8 C2.54625 7.21625 2.0925 6.4325 1.625 5.625 C0.11571258 2.96301969 0.11571258 2.96301969 -2 1 C-1.34 0.67 -0.68 0.34 0 0 Z " fill="#303433" transform="translate(235,119)"/>
<path d="M0 0 C0 0.99 0 1.98 0 3 C-1.8125 3.625 -1.8125 3.625 -4 4 C-4.99 3.34 -5.98 2.68 -7 2 C-2.25 0 -2.25 0 0 0 Z " fill="#323637" transform="translate(154,117)"/>
<path d="M0 0 C1.98 0.495 1.98 0.495 4 1 C3.67 2.32 3.34 3.64 3 5 C1.68 4.67 0.36 4.34 -1 4 C-0.67 2.68 -0.34 1.36 0 0 Z " fill="#313635" transform="translate(194,81)"/>
</svg>
